<svg xmlns="http://www.w3.org/2000/svg" width="512" height="512" viewBox="0 0 512 512" role="img" aria-label="Stu-SoulCare icon">
  <defs>
    <linearGradient id="g" x1="0" y1="0" x2="1" y2="1">
      <stop offset="0%" stop-color="#2d7ff9"/>
      <stop offset="100%" stop-color="#1ea896"/>
    </linearGradient>
  </defs>
  <rect width="512" height="512" rx="120" fill="url(#g)"/>
  <circle cx="256" cy="238" r="124" fill="rgba(255,255,255,0.2)"/>
  <path d="M256 350c-5 0-11-3-14-7-21-28-96-63-96-125 0-37 28-67 64-67 21 0 35 8 46 24 11-16 25-24 46-24 36 0 64 30 64 67 0 62-75 97-96 125-3 4-9 7-14 7z" fill="#ffffff"/>
</svg>