<svg xmlns="http://www.w3.org/2000/svg" width="192" height="192" viewBox="0 0 192 192" role="img" aria-label="Stu-SoulCare icon">
  <defs>
    <linearGradient id="g" x1="0" y1="0" x2="1" y2="1">
      <stop offset="0%" stop-color="#2d7ff9"/>
      <stop offset="100%" stop-color="#1ea896"/>
    </linearGradient>
  </defs>
  <rect width="192" height="192" rx="44" fill="url(#g)"/>
  <circle cx="96" cy="92" r="46" fill="rgba(255,255,255,0.2)"/>
  <path d="M96 132c-2 0-4-1-5-3-8-10-36-24-36-47 0-14 10-25 24-25 8 0 13 3 17 9 4-6 9-9 17-9 14 0 24 11 24 25 0 23-28 37-36 47-1 2-3 3-5 3z" fill="#ffffff"/>
</svg>